<svg width="10" height="17" viewBox="0 0 10 17" fill="none" xmlns="http://www.w3.org/2000/svg">
<path d="M5.5684 13.0964V8.48046C5.5684 7.22268 5.90422 6.19082 6.57584 5.38486C7.24747 4.5667 8.15722 4.02329 9.30509 3.75464V5.80616C8.95096 5.91606 8.664 6.05038 8.44419 6.20913C8.22438 6.36788 8.05342 6.55716 7.93131 6.77696C7.8092 6.99677 7.72982 7.25321 7.69319 7.54628C7.65655 7.82714 7.63824 8.13854 7.63824 8.48046V8.97502H9.30509V13.0964H5.5684ZM0 13.0964V8.48046C0 7.22268 0.335814 6.19082 1.00744 5.38486C1.67907 4.5667 2.58882 4.02329 3.73669 3.75464V5.80616C3.38256 5.91606 3.09559 6.05038 2.87579 6.20913C2.65598 6.36788 2.48502 6.55716 2.36291 6.77696C2.25301 6.99677 2.17363 7.25321 2.12479 7.54628C2.08815 7.82714 2.06983 8.13854 2.06983 8.48046V8.97502H3.73669V13.0964H0Z" fill="black"/>
</svg>
