<svg width="33" height="32" viewBox="0 0 33 32" fill="none" xmlns="http://www.w3.org/2000/svg">
<g clip-path="url(#clip0_84_4960)">
<path d="M6.27277 22.0064V18.3166C6.27277 17.8273 6.46714 17.358 6.81313 17.012C7.15912 16.6661 7.62838 16.4717 8.11768 16.4717H11.8075C13.52 16.4717 15.1625 17.152 16.3734 18.3629C17.5844 19.5739 18.2647 21.2163 18.2647 22.9289C18.2647 23.1711 18.217 23.411 18.1242 23.6349C18.0315 23.8587 17.8956 24.0621 17.7243 24.2334C17.553 24.4047 17.3496 24.5406 17.1258 24.6333C16.902 24.7261 16.662 24.7738 16.4198 24.7738H9.04013" stroke="#747474" stroke-linecap="round" stroke-linejoin="round"/>
<path d="M6.27277 22.0066C6.27277 22.37 6.34435 22.7299 6.48342 23.0656C6.62249 23.4014 6.82633 23.7065 7.08331 23.9634C7.34028 24.2204 7.64535 24.4243 7.98111 24.5633C8.31686 24.7024 8.67672 24.774 9.04013 24.774C9.40355 24.774 9.7634 24.7024 10.0992 24.5633C10.4349 24.4243 10.74 24.2204 10.997 23.9634C11.2539 23.7065 11.4578 23.4014 11.5968 23.0656C11.7359 22.7299 11.8075 22.37 11.8075 22.0066C11.8075 21.6432 11.7359 21.2834 11.5968 20.9476C11.4578 20.6118 11.2539 20.3068 10.997 20.0498C10.74 19.7928 10.4349 19.589 10.0992 19.4499C9.7634 19.3108 9.40355 19.2393 9.04013 19.2393C8.67672 19.2393 8.31686 19.3108 7.98111 19.4499C7.64535 19.589 7.34028 19.7928 7.08331 20.0498C6.82633 20.3068 6.62249 20.6118 6.48342 20.9476C6.34435 21.2834 6.27277 21.6432 6.27277 22.0066Z" stroke="#747474" stroke-linecap="round" stroke-linejoin="round"/>
<path d="M9.04001 21.7754C9.08563 21.7754 9.13023 21.7889 9.16816 21.8143C9.2061 21.8396 9.23567 21.8756 9.25313 21.9178C9.27058 21.9599 9.27515 22.0063 9.26625 22.0511C9.25735 22.0958 9.23538 22.1369 9.20312 22.1692C9.17086 22.2014 9.12976 22.2234 9.08501 22.2323C9.04026 22.2412 8.99388 22.2366 8.95173 22.2192C8.90958 22.2017 8.87355 22.1722 8.8482 22.1342C8.82286 22.0963 8.80933 22.0517 8.80933 22.0061C8.80933 21.9449 8.83363 21.8862 8.87689 21.843C8.92015 21.7997 8.97883 21.7754 9.04001 21.7754Z" stroke="#747474" stroke-linecap="round" stroke-linejoin="round"/>
<path d="M15.527 17.6491C16.3153 16.4749 16.7822 15.1146 16.8811 13.7038C16.7794 12.1113 16.4296 10.5446 15.8443 9.06011C15.675 8.59661 15.62 8.0991 15.684 7.6098C15.748 7.12051 15.9291 6.65388 16.2119 6.24952C16.4948 5.84517 16.871 5.51503 17.3087 5.28713C17.7464 5.05923 18.2326 4.9403 18.7261 4.94043C19.5823 4.94043 20.4035 5.28058 21.009 5.88606C21.6145 6.49154 21.9546 7.31275 21.9546 8.16902V22.0059" stroke="#747474" stroke-linecap="round" stroke-linejoin="round"/>
<path d="M27.4897 24.7742H22.8774C22.6328 24.7742 22.3981 24.677 22.2251 24.504C22.0521 24.331 21.955 24.0964 21.955 23.8517V22.0068H24.7223C25.4563 22.0068 26.1602 22.2984 26.6791 22.8174C27.1981 23.3364 27.4897 24.0403 27.4897 24.7742Z" stroke="#747474" stroke-linecap="round" stroke-linejoin="round"/>
<path d="M12.7298 16.5361C12.4204 17.0977 12.2627 17.7302 12.2723 18.3712C12.2818 19.0123 12.4582 19.6398 12.784 20.192C13.1099 20.7441 13.5741 21.2018 14.1307 21.5199C14.6873 21.8381 15.3172 22.0057 15.9584 22.0063H18.199" stroke="#747474" stroke-linecap="round" stroke-linejoin="round"/>
</g>
<defs>
<clipPath id="clip0_84_4960">
<rect width="23.619" height="23.619" fill="white" transform="translate(5.07141 3.04785)"/>
</clipPath>
</defs>
</svg>
