<svg width="32" height="32" viewBox="0 0 32 32" fill="none" xmlns="http://www.w3.org/2000/svg">
<path d="M8.39569 12.6675C8.39569 14.6878 9.19827 16.6254 10.6269 18.054C12.0555 19.4826 13.993 20.2852 16.0134 20.2852C18.0337 20.2852 19.9713 19.4826 21.3999 18.054C22.8285 16.6254 23.6311 14.6878 23.6311 12.6675C23.6311 10.6472 22.8285 8.70957 21.3999 7.28098C19.9713 5.85238 18.0337 5.0498 16.0134 5.0498C13.993 5.0498 12.0555 5.85238 10.6269 7.28098C9.19827 8.70957 8.39569 10.6472 8.39569 12.6675Z" stroke="#747474" stroke-width="1.27323" stroke-linecap="round" stroke-linejoin="round"/>
<path d="M13.6322 22.1895H18.3933" stroke="#747474" stroke-width="1.27323" stroke-linecap="round" stroke-linejoin="round"/>
<path d="M13.6322 24.0938H18.3933" stroke="#747474" stroke-width="1.27323" stroke-linecap="round" stroke-linejoin="round"/>
<path d="M13.6322 25.999H18.3933" stroke="#747474" stroke-width="1.27323" stroke-linecap="round" stroke-linejoin="round"/>
<path d="M16.0137 25.999V26.9512" stroke="#747474" stroke-width="1.27323" stroke-linecap="round" stroke-linejoin="round"/>
<path d="M18.8704 15.5244L17.7782 16.6156C17.6889 16.7049 17.5678 16.755 17.4416 16.755C17.3153 16.755 17.1943 16.7049 17.105 16.6156L16.0137 15.5244L14.9216 16.6156C14.8323 16.7049 14.7112 16.755 14.5849 16.755C14.4587 16.755 14.3376 16.7049 14.2483 16.6156L13.1571 15.5244" stroke="#747474" stroke-width="1.27323" stroke-linecap="round" stroke-linejoin="round"/>
<path d="M16.0137 15.5244V20.2855" stroke="#747474" stroke-width="1.27323" stroke-linecap="round" stroke-linejoin="round"/>
</svg>
