<svg width="60" height="14" viewBox="0 0 60 14" fill="none" xmlns="http://www.w3.org/2000/svg">
<path d="M6.80002 9.94381L4.44835 11.3605C4.34446 11.4266 4.23585 11.4549 4.12252 11.4455C4.00918 11.436 3.91002 11.3983 3.82502 11.3321C3.74002 11.266 3.6739 11.1835 3.62668 11.0845C3.57946 10.9855 3.57002 10.8745 3.59835 10.7513L4.22168 8.07381L2.13918 6.27465C2.04474 6.18965 1.9858 6.09275 1.96238 5.98395C1.93896 5.87515 1.94595 5.76899 1.98335 5.66548C2.02075 5.56197 2.07742 5.47697 2.15335 5.41048C2.22928 5.34399 2.33317 5.30149 2.46502 5.28298L5.21335 5.04215L6.27585 2.52048C6.32307 2.40715 6.39636 2.32215 6.49572 2.26548C6.59507 2.20881 6.6965 2.18048 6.80002 2.18048C6.90353 2.18048 7.00496 2.20881 7.10432 2.26548C7.20367 2.32215 7.27696 2.40715 7.32418 2.52048L8.38668 5.04215L11.135 5.28298C11.2672 5.30187 11.3711 5.34437 11.4467 5.41048C11.5222 5.47659 11.5789 5.56159 11.6167 5.66548C11.6545 5.76937 11.6616 5.87571 11.6382 5.98451C11.6148 6.09331 11.5557 6.19003 11.4608 6.27465L9.37835 8.07381L10.0017 10.7513C10.03 10.8741 10.0206 10.9852 9.97335 11.0845C9.92613 11.1839 9.86002 11.2664 9.77502 11.3321C9.69002 11.3979 9.59085 11.4357 9.47752 11.4455C9.36418 11.4553 9.25557 11.427 9.15168 11.3605L6.80002 9.94381Z" fill="#FABE2A"/>
<path d="M18.4 9.94381L16.0483 11.3605C15.9444 11.4266 15.8358 11.4549 15.7225 11.4455C15.6092 11.436 15.51 11.3983 15.425 11.3321C15.34 11.266 15.2739 11.1835 15.2267 11.0845C15.1794 10.9855 15.17 10.8745 15.1983 10.7513L15.8217 8.07381L13.7392 6.27465C13.6447 6.18965 13.5858 6.09275 13.5624 5.98395C13.5389 5.87515 13.5459 5.76899 13.5833 5.66548C13.6207 5.56197 13.6774 5.47697 13.7533 5.41048C13.8293 5.34399 13.9331 5.30149 14.065 5.28298L16.8133 5.04215L17.8758 2.52048C17.923 2.40715 17.9963 2.32215 18.0957 2.26548C18.195 2.20881 18.2965 2.18048 18.4 2.18048C18.5035 2.18048 18.6049 2.20881 18.7043 2.26548C18.8036 2.32215 18.8769 2.40715 18.9242 2.52048L19.9867 5.04215L22.735 5.28298C22.8672 5.30187 22.9711 5.34437 23.0467 5.41048C23.1222 5.47659 23.1789 5.56159 23.2167 5.66548C23.2544 5.76937 23.2616 5.87571 23.2382 5.98451C23.2148 6.09331 23.1556 6.19003 23.0608 6.27465L20.9783 8.07381L21.6017 10.7513C21.63 10.8741 21.6205 10.9852 21.5733 11.0845C21.5261 11.1839 21.46 11.2664 21.375 11.3321C21.29 11.3979 21.1908 11.4357 21.0775 11.4455C20.9642 11.4553 20.8555 11.427 20.7517 11.3605L18.4 9.94381Z" fill="#FABE2A"/>
<path d="M30 9.94381L27.6483 11.3605C27.5444 11.4266 27.4358 11.4549 27.3225 11.4455C27.2091 11.436 27.11 11.3983 27.025 11.3321C26.94 11.266 26.8739 11.1835 26.8266 11.0845C26.7794 10.9855 26.77 10.8745 26.7983 10.7513L27.4216 8.07381L25.3391 6.27465C25.2447 6.18965 25.1858 6.09275 25.1623 5.98395C25.1389 5.87515 25.1459 5.76899 25.1833 5.66548C25.2207 5.56197 25.2774 5.47697 25.3533 5.41048C25.4292 5.34399 25.5331 5.30149 25.665 5.28298L28.4133 5.04215L29.4758 2.52048C29.523 2.40715 29.5963 2.32215 29.6957 2.26548C29.795 2.20881 29.8965 2.18048 30 2.18048C30.1035 2.18048 30.2049 2.20881 30.3043 2.26548C30.4036 2.32215 30.4769 2.40715 30.5241 2.52048L31.5866 5.04215L34.335 5.28298C34.4672 5.30187 34.5711 5.34437 34.6466 5.41048C34.7222 5.47659 34.7789 5.56159 34.8166 5.66548C34.8544 5.76937 34.8616 5.87571 34.8382 5.98451C34.8147 6.09331 34.7556 6.19003 34.6608 6.27465L32.5783 8.07381L33.2016 10.7513C33.23 10.8741 33.2205 10.9852 33.1733 11.0845C33.1261 11.1839 33.06 11.2664 32.975 11.3321C32.89 11.3979 32.7908 11.4357 32.6775 11.4455C32.5641 11.4553 32.4555 11.427 32.3516 11.3605L30 9.94381Z" fill="#FABE2A"/>
<path d="M41.6001 9.94381L39.2484 11.3605C39.1445 11.4266 39.0359 11.4549 38.9226 11.4455C38.8092 11.436 38.7101 11.3983 38.6251 11.3321C38.5401 11.266 38.474 11.1835 38.4267 11.0845C38.3795 10.9855 38.3701 10.8745 38.3984 10.7513L39.0217 8.07381L36.9392 6.27465C36.8448 6.18965 36.7859 6.09275 36.7624 5.98395C36.739 5.87515 36.746 5.76899 36.7834 5.66548C36.8208 5.56197 36.8775 5.47697 36.9534 5.41048C37.0293 5.34399 37.1332 5.30149 37.2651 5.28298L40.0134 5.04215L41.0759 2.52048C41.1231 2.40715 41.1964 2.32215 41.2958 2.26548C41.3951 2.20881 41.4966 2.18048 41.6001 2.18048C41.7036 2.18048 41.805 2.20881 41.9044 2.26548C42.0037 2.32215 42.077 2.40715 42.1242 2.52048L43.1867 5.04215L45.9351 5.28298C46.0673 5.30187 46.1712 5.34437 46.2467 5.41048C46.3223 5.47659 46.379 5.56159 46.4167 5.66548C46.4545 5.76937 46.4617 5.87571 46.4383 5.98451C46.4148 6.09331 46.3557 6.19003 46.2609 6.27465L44.1784 8.07381L44.8017 10.7513C44.8301 10.8741 44.8206 10.9852 44.7734 11.0845C44.7262 11.1839 44.6601 11.2664 44.5751 11.3321C44.4901 11.3979 44.3909 11.4357 44.2776 11.4455C44.1642 11.4553 44.0556 11.427 43.9517 11.3605L41.6001 9.94381Z" fill="#FABE2A"/>
<path d="M53.2 9.94381L50.8484 11.3605C50.7445 11.4266 50.6359 11.4549 50.5225 11.4455C50.4092 11.436 50.31 11.3983 50.225 11.3321C50.14 11.266 50.0739 11.1835 50.0267 11.0845C49.9795 10.9855 49.97 10.8745 49.9984 10.7513L50.6217 8.07381L48.5392 6.27465C48.4448 6.18965 48.3858 6.09275 48.3624 5.98395C48.339 5.87515 48.346 5.76899 48.3834 5.66548C48.4208 5.56197 48.4774 5.47697 48.5534 5.41048C48.6293 5.34399 48.7332 5.30149 48.865 5.28298L51.6134 5.04215L52.6759 2.52048C52.7231 2.40715 52.7964 2.32215 52.8957 2.26548C52.9951 2.20881 53.0965 2.18048 53.2 2.18048C53.3036 2.18048 53.405 2.20881 53.5043 2.26548C53.6037 2.32215 53.677 2.40715 53.7242 2.52048L54.7867 5.04215L57.535 5.28298C57.6673 5.30187 57.7712 5.34437 57.8467 5.41048C57.9223 5.47659 57.9789 5.56159 58.0167 5.66548C58.0545 5.76937 58.0617 5.87571 58.0382 5.98451C58.0148 6.09331 57.9557 6.19003 57.8609 6.27465L55.7784 8.07381L56.4017 10.7513C56.43 10.8741 56.4206 10.9852 56.3734 11.0845C56.3262 11.1839 56.26 11.2664 56.175 11.3321C56.09 11.3979 55.9909 11.4357 55.8775 11.4455C55.7642 11.4553 55.6556 11.427 55.5517 11.3605L53.2 9.94381Z" fill="#FABE2A"/>
</svg>
