<svg width="17" height="17" viewBox="0 0 17 17" fill="none" xmlns="http://www.w3.org/2000/svg">
<path d="M8.50005 12.2365L5.56047 14.0073C5.43061 14.0899 5.29484 14.1253 5.15317 14.1135C5.01151 14.1017 4.88755 14.0545 4.7813 13.9719C4.67505 13.8892 4.59241 13.7861 4.53338 13.6623C4.47436 13.5386 4.46255 13.3998 4.49797 13.2458L5.27713 9.89895L2.67401 7.65C2.55595 7.54375 2.48229 7.42262 2.45301 7.28662C2.42373 7.15062 2.43247 7.01793 2.47922 6.88854C2.52597 6.75915 2.5968 6.6529 2.69172 6.56979C2.78663 6.48668 2.91649 6.43355 3.0813 6.41041L6.51672 6.10937L7.84484 2.95729C7.90387 2.81562 7.99548 2.70937 8.11968 2.63854C8.24387 2.5677 8.37066 2.53229 8.50005 2.53229C8.62944 2.53229 8.75623 2.5677 8.88042 2.63854C9.00462 2.70937 9.09623 2.81562 9.15526 2.95729L10.4834 6.10937L13.9188 6.41041C14.0841 6.43402 14.2139 6.48715 14.3084 6.56979C14.4028 6.65243 14.4737 6.75868 14.5209 6.88854C14.5681 7.0184 14.5771 7.15133 14.5478 7.28733C14.5185 7.42333 14.4446 7.54422 14.3261 7.65L11.723 9.89895L12.5021 13.2458C12.5375 13.3993 12.5257 13.5381 12.4667 13.6623C12.4077 13.7865 12.325 13.8897 12.2188 13.9719C12.1125 14.054 11.9886 14.1013 11.8469 14.1135C11.7053 14.1258 11.5695 14.0904 11.4396 14.0073L8.50005 12.2365Z" fill="black"/>
</svg>
