<svg width="17" height="17" viewBox="0 0 17 17" fill="none" xmlns="http://www.w3.org/2000/svg">
<path d="M5.66665 3.89583V3.1875C5.66665 2.47917 6.02081 2.125 6.72915 2.125H10.2708C10.9791 2.125 11.3333 2.47917 11.3333 3.1875V3.89583C11.3333 4.60417 10.9791 4.95833 10.2708 4.95833H6.72915C6.02081 4.95833 5.66665 4.60417 5.66665 3.89583ZM14.1666 5.66667V12.75C14.1666 14.1667 13.4583 14.875 12.0416 14.875H4.95831C3.54165 14.875 2.83331 14.1667 2.83331 12.75V5.66667C2.83331 4.43275 3.3659 3.73788 4.43761 3.58205C4.52332 3.5693 4.60415 3.64012 4.60415 3.72653V3.89514C4.60415 5.18431 5.43998 6.02014 6.72915 6.02014H10.2708C11.56 6.02014 12.3958 5.18431 12.3958 3.89514V3.72653C12.3958 3.64012 12.4773 3.5693 12.5623 3.58205C13.6341 3.73788 14.1666 4.43275 14.1666 5.66667ZM9.73956 11.3333C9.73956 11.0401 9.50156 10.8021 9.20831 10.8021H6.37498C6.08173 10.8021 5.84373 11.0401 5.84373 11.3333C5.84373 11.6266 6.08173 11.8646 6.37498 11.8646H9.20831C9.50156 11.8646 9.73956 11.6266 9.73956 11.3333ZM11.1562 8.5C11.1562 8.20675 10.9182 7.96875 10.625 7.96875H6.37498C6.08173 7.96875 5.84373 8.20675 5.84373 8.5C5.84373 8.79325 6.08173 9.03125 6.37498 9.03125H10.625C10.9182 9.03125 11.1562 8.79325 11.1562 8.5Z" fill="black"/>
</svg>
