<svg width="761" height="102" viewBox="0 0 761 102" fill="none" xmlns="http://www.w3.org/2000/svg">
<path d="M15.8746 79V34.4456H21.0668V79H15.8746ZM18.5142 26.7878C17.4506 26.7878 16.5418 26.4301 15.7876 25.7146C15.0334 24.9798 14.6563 24.0999 14.6563 23.075C14.6563 22.0501 15.0334 21.1799 15.7876 20.4644C16.5418 19.7295 17.4506 19.3621 18.5142 19.3621C19.5778 19.3621 20.4867 19.7295 21.2409 20.4644C21.995 21.1799 22.3721 22.0501 22.3721 23.075C22.3721 24.0999 21.995 24.9798 21.2409 25.7146C20.4867 26.4301 19.5778 26.7878 18.5142 26.7878ZM39.8849 51.1535V79H34.7217V34.4456H39.7399V41.4363H40.204C41.2483 39.1544 42.8726 37.327 45.0772 35.954C47.301 34.5617 50.047 33.8655 53.3151 33.8655C56.3124 33.8655 58.9424 34.494 61.2049 35.7509C63.4868 36.9885 65.2562 38.816 66.5131 41.2332C67.7894 43.6504 68.4276 46.6188 68.4276 50.1383V79H63.2644V50.4574C63.2644 46.8025 62.2395 43.9115 60.1897 41.7843C58.1592 39.6572 55.4326 38.5936 52.0098 38.5936C49.6699 38.5936 47.5911 39.0964 45.7733 40.1019C43.9556 41.1075 42.5149 42.5578 41.4513 44.453C40.4071 46.3287 39.8849 48.5622 39.8849 51.1535ZM98.0652 79.9282C94.4104 79.9282 91.21 78.9613 88.464 77.0275C85.718 75.0938 83.5715 72.3961 82.0245 68.9347C80.4968 65.4732 79.733 61.4412 79.733 56.8388C79.733 52.2558 80.4968 48.2432 82.0245 44.801C83.5715 41.3396 85.7277 38.6516 88.493 36.7372C91.2583 34.8034 94.4781 33.8365 98.1523 33.8365C100.86 33.8365 103.112 34.3199 104.911 35.2868C106.709 36.2344 108.15 37.414 109.233 38.8256C110.316 40.2373 111.157 41.6103 111.756 42.9446H112.221V19.5942H117.413V79H112.366V70.7331H111.756C111.157 72.0867 110.306 73.479 109.204 74.91C108.102 76.3217 106.642 77.511 104.824 78.4779C103.025 79.4448 100.773 79.9282 98.0652 79.9282ZM98.6744 75.2001C101.556 75.2001 104.012 74.4169 106.042 72.8506C108.073 71.2649 109.62 69.0894 110.683 66.324C111.766 63.5394 112.308 60.3487 112.308 56.7518C112.308 53.1937 111.776 50.0513 110.712 47.3246C109.649 44.5786 108.102 42.4321 106.071 40.8851C104.041 39.3188 101.575 38.5356 98.6744 38.5356C95.6964 38.5356 93.1824 39.3478 91.1326 40.9721C89.1022 42.5772 87.5551 44.7527 86.4915 47.4987C85.4473 50.2446 84.9252 53.329 84.9252 56.7518C84.9252 60.2133 85.457 63.3364 86.5206 66.121C87.5841 68.9056 89.1312 71.1198 91.1616 72.7635C93.2114 74.3879 95.7157 75.2001 98.6744 75.2001ZM132.177 79V34.4456H137.369V79H132.177ZM134.817 26.7878C133.753 26.7878 132.844 26.4301 132.09 25.7146C131.336 24.9798 130.959 24.0999 130.959 23.075C130.959 22.0501 131.336 21.1799 132.09 20.4644C132.844 19.7295 133.753 19.3621 134.817 19.3621C135.88 19.3621 136.789 19.7295 137.543 20.4644C138.298 21.1799 138.675 22.0501 138.675 23.075C138.675 24.0999 138.298 24.9798 137.543 25.7146C136.789 26.4301 135.88 26.7878 134.817 26.7878ZM168.428 79.9282C164.445 79.9282 160.974 78.9323 158.015 76.9405C155.076 74.9487 152.794 72.2221 151.169 68.7606C149.545 65.2991 148.733 61.3542 148.733 56.9259C148.733 52.4588 149.555 48.4849 151.198 45.0041C152.861 41.5233 155.163 38.7966 158.102 36.8242C161.041 34.8324 164.454 33.8365 168.341 33.8365C171.319 33.8365 174.017 34.4166 176.434 35.5769C178.851 36.7178 180.843 38.3325 182.41 40.421C183.995 42.4902 184.991 44.9074 185.397 47.6727H180.176C179.635 45.1588 178.329 43.0123 176.26 41.2332C174.21 39.4348 171.6 38.5356 168.428 38.5356C165.586 38.5356 163.072 39.3091 160.887 40.8561C158.701 42.3838 156.99 44.5206 155.752 47.2666C154.534 49.9932 153.925 53.155 153.925 56.7518C153.925 60.368 154.524 63.5684 155.723 66.3531C156.922 69.1184 158.605 71.2842 160.771 72.8506C162.956 74.4169 165.508 75.2001 168.428 75.2001C170.401 75.2001 172.199 74.8327 173.824 74.0979C175.467 73.3437 176.84 72.2801 177.943 70.9071C179.064 69.5341 179.818 67.9001 180.205 66.005H185.426C185.04 68.6929 184.082 71.0908 182.555 73.1986C181.046 75.2871 179.084 76.9309 176.666 78.1298C174.268 79.3287 171.522 79.9282 168.428 79.9282ZM208.936 80.0152C206.248 80.0152 203.792 79.4931 201.569 78.4489C199.345 77.3853 197.575 75.8576 196.26 73.8658C194.945 71.8547 194.288 69.4181 194.288 66.5561C194.288 64.3516 194.704 62.4952 195.535 60.9868C196.367 59.4785 197.546 58.2408 199.074 57.2739C200.602 56.307 202.41 55.5432 204.498 54.9824C206.587 54.4216 208.888 53.9865 211.402 53.6771C213.896 53.3677 216.004 53.097 217.725 52.8649C219.466 52.6329 220.79 52.2654 221.699 51.7627C222.608 51.2599 223.063 50.4477 223.063 49.3261V48.2818C223.063 45.2458 222.154 42.8576 220.336 41.1172C218.538 39.3574 215.946 38.4776 212.562 38.4776C209.352 38.4776 206.732 39.1834 204.701 40.5951C202.69 42.0067 201.279 43.6698 200.466 45.5842L195.564 43.8148C196.57 41.3782 197.962 39.4348 199.741 37.9844C201.52 36.5148 203.512 35.4609 205.717 34.8227C207.921 34.1652 210.155 33.8365 212.417 33.8365C214.119 33.8365 215.888 34.0589 217.725 34.5036C219.582 34.9484 221.303 35.7219 222.889 36.8242C224.474 37.9071 225.76 39.4251 226.746 41.3782C227.733 43.312 228.226 45.7679 228.226 48.746V79H223.063V71.9514H222.744C222.125 73.2663 221.206 74.5426 219.988 75.7803C218.77 77.0179 217.242 78.0331 215.405 78.826C213.568 79.6188 211.412 80.0152 208.936 80.0152ZM209.632 75.2871C212.378 75.2871 214.757 74.678 216.768 73.4597C218.779 72.2414 220.326 70.6267 221.409 68.6156C222.511 66.5851 223.063 64.3516 223.063 61.915V55.4755C222.676 55.8429 222.028 56.1717 221.119 56.4618C220.23 56.7518 219.195 57.0129 218.015 57.2449C216.855 57.4576 215.695 57.6414 214.535 57.7961C213.374 57.9508 212.33 58.0861 211.402 58.2022C208.888 58.5116 206.741 58.995 204.962 59.6525C203.183 60.31 201.82 61.2189 200.872 62.3791C199.925 63.5201 199.451 64.9897 199.451 66.7882C199.451 69.4955 200.418 71.5936 202.352 73.0826C204.286 74.5523 206.712 75.2871 209.632 75.2871ZM263.106 34.4456V42.5675H236.768V34.4456H263.106ZM243.353 79V30.2396C243.353 27.2423 243.972 24.7477 245.209 22.7559C246.466 20.7641 248.149 19.2751 250.256 18.2889C252.364 17.3026 254.704 16.8095 257.276 16.8095C259.094 16.8095 260.709 16.9545 262.12 17.2446C263.532 17.5347 264.576 17.7957 265.253 18.0278L263.164 26.1497C262.72 26.0143 262.159 25.879 261.482 25.7436C260.805 25.5889 260.051 25.5115 259.22 25.5115C257.266 25.5115 255.884 25.9853 255.072 26.9329C254.279 27.8611 253.882 29.1954 253.882 30.9358V79H243.353ZM282.635 79.8992C279.812 79.8992 277.269 79.3964 275.006 78.3909C272.763 77.366 270.984 75.8576 269.669 73.8658C268.374 71.874 267.726 69.4181 267.726 66.4981C267.726 63.9842 268.19 61.9054 269.118 60.2616C270.046 58.6179 271.313 57.3029 272.918 56.3167C274.523 55.3305 276.331 54.586 278.342 54.0832C280.373 53.5611 282.471 53.184 284.637 52.9519C287.247 52.6812 289.365 52.4395 290.989 52.2268C292.614 51.9947 293.793 51.6466 294.528 51.1825C295.282 50.6991 295.659 49.9546 295.659 48.949V48.775C295.659 46.5898 295.011 44.8977 293.716 43.6988C292.42 42.4998 290.554 41.9004 288.117 41.9004C285.546 41.9004 283.505 42.4612 281.997 43.5828C280.508 44.7043 279.502 46.029 278.98 47.5567L269.176 46.1644C269.95 43.4571 271.226 41.1945 273.005 39.3768C274.784 37.5397 276.96 36.1667 279.531 35.2578C282.103 34.3296 284.946 33.8655 288.059 33.8655C290.206 33.8655 292.343 34.1169 294.47 34.6197C296.597 35.1224 298.541 35.954 300.3 37.1142C302.06 38.2552 303.472 39.8119 304.535 41.7843C305.618 43.7568 306.16 46.2224 306.16 49.1811V79H296.065V72.8796H295.717C295.079 74.1172 294.18 75.2775 293.02 76.3604C291.879 77.424 290.438 78.2845 288.698 78.942C286.977 79.5801 284.956 79.8992 282.635 79.8992ZM285.362 72.1834C287.47 72.1834 289.297 71.7676 290.844 70.9361C292.391 70.0853 293.58 68.9637 294.412 67.5713C295.263 66.179 295.688 64.661 295.688 63.0173V57.7671C295.36 58.0378 294.799 58.2892 294.006 58.5212C293.232 58.7533 292.362 58.9563 291.395 59.1304C290.428 59.3044 289.471 59.4591 288.524 59.5945C287.576 59.7298 286.754 59.8459 286.058 59.9426C284.492 60.1553 283.09 60.5034 281.852 60.9868C280.614 61.4703 279.638 62.1471 278.922 63.0173C278.207 63.8681 277.849 64.9704 277.849 66.324C277.849 68.2578 278.555 69.7178 279.967 70.7041C281.378 71.6903 283.177 72.1834 285.362 72.1834ZM336.153 79.8702C331.705 79.8702 327.886 78.8936 324.695 76.9405C321.524 74.9874 319.077 72.2898 317.356 68.8476C315.655 65.3862 314.804 61.4026 314.804 56.8969C314.804 52.3718 315.674 48.3785 317.414 44.9171C319.155 41.4363 321.611 38.729 324.782 36.7952C327.973 34.842 331.744 33.8655 336.095 33.8655C339.711 33.8655 342.911 34.5326 345.696 35.867C348.5 37.1819 350.733 39.048 352.396 41.4653C354.06 43.8631 355.007 46.6671 355.239 49.8772H345.203C344.797 47.7307 343.83 45.942 342.302 44.511C340.794 43.0606 338.773 42.3355 336.24 42.3355C334.093 42.3355 332.208 42.9156 330.583 44.0759C328.959 45.2168 327.692 46.8605 326.784 49.007C325.894 51.1535 325.449 53.7254 325.449 56.7228C325.449 59.7589 325.894 62.3695 326.784 64.5546C327.673 66.7205 328.92 68.3932 330.525 69.5728C332.15 70.7331 334.055 71.3132 336.24 71.3132C337.787 71.3132 339.169 71.0231 340.388 70.443C341.625 69.8435 342.66 68.983 343.491 67.8614C344.323 66.7398 344.893 65.3765 345.203 63.7715H355.239C354.988 66.9235 354.06 69.7178 352.454 72.1544C350.849 74.5716 348.664 76.4667 345.899 77.8397C343.134 79.1934 339.885 79.8702 336.153 79.8702ZM363.861 79V34.4456H374.362V79H363.861ZM369.141 28.1222C367.478 28.1222 366.047 27.571 364.848 26.4688C363.649 25.3472 363.049 24.0032 363.049 22.4368C363.049 20.8511 363.649 19.5071 364.848 18.4049C366.047 17.2833 367.478 16.7225 369.141 16.7225C370.823 16.7225 372.254 17.2833 373.434 18.4049C374.633 19.5071 375.232 20.8511 375.232 22.4368C375.232 24.0032 374.633 25.3472 373.434 26.4688C372.254 27.571 370.823 28.1222 369.141 28.1222ZM395.66 19.5942V79H385.16V19.5942H395.66ZM411.708 79.3771C410.838 79.3771 410.093 79.0774 409.475 78.4779C408.875 77.8591 408.575 77.1146 408.575 76.2444C408.575 75.3935 408.875 74.6587 409.475 74.0398C410.093 73.421 410.838 73.1116 411.708 73.1116C412.559 73.1116 413.294 73.421 413.913 74.0398C414.531 74.6587 414.841 75.3935 414.841 76.2444C414.841 76.8245 414.696 77.3563 414.406 77.8397C414.135 78.3038 413.758 78.6809 413.274 78.971C412.81 79.2417 412.288 79.3771 411.708 79.3771ZM433.238 50.1093V79H429.699V34.4456H433.151V41.4943H433.499C434.544 39.1931 436.216 37.3463 438.518 35.954C440.819 34.5617 443.555 33.8655 446.726 33.8655C449.724 33.8655 452.354 34.5036 454.616 35.7799C456.898 37.0562 458.677 38.874 459.954 41.2332C461.249 43.5731 461.897 46.3674 461.897 49.6162V79H458.358V49.7612C458.358 45.971 457.227 42.9253 454.964 40.6241C452.721 38.3035 449.753 37.1433 446.059 37.1433C443.584 37.1433 441.38 37.6847 439.446 38.7676C437.512 39.8505 435.994 41.3686 434.892 43.3217C433.789 45.2555 433.238 47.518 433.238 50.1093ZM493.978 79.9282C489.956 79.9282 486.456 78.9323 483.478 76.9405C480.5 74.9487 478.199 72.2221 476.574 68.7606C474.95 65.2991 474.138 61.3542 474.138 56.9259C474.138 52.4782 474.95 48.5139 476.574 45.0331C478.218 41.5523 480.471 38.8063 483.333 36.7952C486.195 34.784 489.463 33.7785 493.137 33.7785C495.632 33.7785 497.991 34.2813 500.215 35.2868C502.458 36.273 504.431 37.704 506.132 39.5798C507.853 41.4556 509.197 43.7181 510.164 46.3674C511.15 49.0167 511.644 51.9947 511.644 55.3015V57.506H476.371V54.2862H508.105C508.105 51.0568 507.447 48.1465 506.132 45.5552C504.817 42.9639 503.029 40.9045 500.766 39.3768C498.503 37.8491 495.961 37.0852 493.137 37.0852C490.179 37.0852 487.539 37.9168 485.218 39.5798C482.917 41.2235 481.09 43.4474 479.736 46.2514C478.402 49.0554 477.706 52.1881 477.648 55.6496V57.0999C477.648 60.8128 478.295 64.1485 479.591 67.1072C480.906 70.0466 482.782 72.3768 485.218 74.0979C487.655 75.7996 490.575 76.6505 493.978 76.6505C496.415 76.6505 498.494 76.2444 500.215 75.4322C501.955 74.6006 503.377 73.5951 504.479 72.4155C505.581 71.2359 506.413 70.0949 506.973 68.9927L510.193 70.298C509.516 71.787 508.462 73.276 507.031 74.765C505.62 76.2347 503.821 77.4626 501.636 78.4489C499.47 79.4351 496.918 79.9282 493.978 79.9282ZM539.577 34.4456V37.6074H520.114V34.4456H539.577ZM526.698 23.7711H530.208V68.4705C530.208 70.2883 530.556 71.7773 531.252 72.9376C531.968 74.0785 532.896 74.9294 534.037 75.4902C535.197 76.0316 536.435 76.3024 537.75 76.3024C538.388 76.3024 538.939 76.254 539.403 76.1573C539.886 76.0606 540.341 75.935 540.766 75.7803L541.637 79C541.095 79.1934 540.496 79.3577 539.838 79.4931C539.181 79.6478 538.407 79.7252 537.518 79.7252C535.661 79.7252 533.901 79.3094 532.238 78.4779C530.595 77.6464 529.26 76.4377 528.235 74.852C527.211 73.2663 526.698 71.3519 526.698 69.1087V23.7711Z" fill="#191919"/>
<path d="M357.303 91.583C350.93 95.4235 342.979 97.4327 334.512 96.8235C328 96.3549 322.011 94.3968 316.973 91.373" stroke="#F6D778" stroke-width="7.76272" stroke-linecap="round"/>
</svg>
