<svg width="33" height="32" viewBox="0 0 33 32" fill="none" xmlns="http://www.w3.org/2000/svg">
<g clip-path="url(#clip0_84_4973)">
<path d="M10.0009 25.0548C9.78045 25.2692 9.48735 25.3868 9.18391 25.3825C8.88046 25.3783 8.5906 25.2525 8.37596 25.032C8.16132 24.8115 8.03883 24.5137 8.03454 24.2018C8.03025 23.8899 8.14449 23.5886 8.35298 23.362L13.4583 18.1133L15.1062 19.8077L10.0009 25.0548Z" stroke="#747474" stroke-width="1.03887" stroke-linecap="round" stroke-linejoin="round"/>
<path d="M12.6358 17.2656L15.93 20.6538" stroke="#747474" stroke-width="1.03887" stroke-linecap="round" stroke-linejoin="round"/>
<path d="M23.0923 9.91504L14.2833 18.9599" stroke="#747474" stroke-width="1.03887" stroke-linecap="round" stroke-linejoin="round"/>
<path d="M24.5489 10.1209C24.4822 10.2127 24.3972 10.2886 24.2994 10.3436C24.2017 10.3986 24.0936 10.4313 23.9824 10.4395C23.8713 10.4478 23.7598 10.4314 23.6554 10.3914C23.5509 10.3515 23.4561 10.2889 23.3773 10.208L22.7464 9.56038C22.6659 9.47783 22.6039 9.37812 22.565 9.26828C22.5261 9.15844 22.5111 9.04115 22.5211 8.9247C22.5311 8.80825 22.5658 8.69548 22.6229 8.59435C22.68 8.49322 22.7579 8.4062 22.8513 8.33943L24.573 7.11051C24.6478 7.05705 24.7385 7.03232 24.8293 7.04064C24.92 7.04896 25.005 7.0898 25.0695 7.15602L25.7687 7.87469C25.8348 7.94282 25.8747 8.03316 25.8811 8.1291C25.8875 8.22504 25.86 8.32015 25.8037 8.39693L24.5489 10.1209Z" stroke="#747474" stroke-width="1.03887" stroke-linecap="round" stroke-linejoin="round"/>
<path d="M16.625 14.2954L13.9523 11.5485C14.166 11.062 14.2577 10.5282 14.219 9.99592C14.1803 9.46363 14.0124 8.94979 13.7306 8.50138C13.4489 8.05297 13.0623 7.68428 12.6062 7.429C12.15 7.17372 11.639 7.03999 11.1196 7.04004C10.9051 7.03996 10.6911 7.06243 10.481 7.10712C10.4124 7.12187 10.349 7.15538 10.2975 7.20412C10.246 7.25285 10.2083 7.31499 10.1883 7.38396C10.1683 7.45294 10.1668 7.52618 10.184 7.59594C10.2012 7.6657 10.2364 7.72939 10.2859 7.78027L11.3946 8.91976C11.4673 8.99459 11.5081 9.09595 11.5081 9.20164V10.2341C11.5081 10.34 11.4671 10.4416 11.3943 10.5165C11.3214 10.5913 11.2226 10.6334 11.1196 10.6334H10.115C10.0122 10.6334 9.91356 10.5914 9.84076 10.5168L8.73207 9.37732C8.68256 9.32642 8.62059 9.29022 8.55272 9.27255C8.48484 9.25488 8.41358 9.25639 8.34647 9.27693C8.27936 9.29746 8.2189 9.33626 8.17148 9.38921C8.12407 9.44217 8.09146 9.50731 8.0771 9.57774C8.03363 9.79368 8.01176 10.0136 8.01184 10.2341C8.01179 10.7679 8.14191 11.2932 8.39029 11.762C8.63867 12.2308 8.99739 12.6281 9.43369 12.9177C9.86998 13.2072 10.3699 13.3798 10.8878 13.4196C11.4057 13.4594 11.9251 13.3652 12.3985 13.1455L15.0711 15.8925" stroke="#747474" stroke-width="1.03887" stroke-linecap="round" stroke-linejoin="round"/>
<path d="M17.2681 18.1508L19.94 20.8977C19.7262 21.3842 19.6345 21.9181 19.6733 22.4505C19.7121 22.9828 19.8801 23.4967 20.1619 23.9451C20.4437 24.3936 20.8304 24.7622 21.2866 25.0175C21.7429 25.2727 22.254 25.4063 22.7735 25.4061C22.988 25.4062 23.202 25.3837 23.4121 25.3391C23.4806 25.3243 23.544 25.2908 23.5956 25.2421C23.6471 25.1933 23.6848 25.1312 23.7048 25.0622C23.7248 24.9932 23.7263 24.92 23.7091 24.8502C23.6919 24.7805 23.6566 24.7168 23.6071 24.6659L22.4984 23.5272C22.4624 23.4901 22.4338 23.446 22.4143 23.3975C22.3949 23.349 22.3849 23.297 22.385 23.2445V22.212C22.385 22.1062 22.4259 22.0046 22.4988 21.9297C22.5716 21.8548 22.6704 21.8128 22.7735 21.8128H23.7781C23.881 21.813 23.9796 21.8552 24.0523 21.9302L25.161 23.0689C25.2105 23.1195 25.2724 23.1556 25.3402 23.1731C25.408 23.1906 25.4791 23.1891 25.5461 23.1686C25.6131 23.148 25.6734 23.1093 25.7208 23.0565C25.7681 23.0037 25.8008 22.9387 25.8152 22.8684C25.9332 22.2912 25.8934 21.6916 25.7002 21.1361C25.5069 20.5807 25.1678 20.0911 24.7204 19.7216C24.2729 19.3521 23.7347 19.1172 23.1653 19.0429C22.596 18.9686 22.0177 19.0578 21.4946 19.3006L18.8219 16.5537" stroke="#747474" stroke-width="1.03887" stroke-linecap="round" stroke-linejoin="round"/>
</g>
<defs>
<clipPath id="clip0_84_4973">
<rect width="19.8932" height="20.4458" fill="white" transform="translate(7 6)"/>
</clipPath>
</defs>
</svg>
