<svg width="33" height="32" viewBox="0 0 33 32" fill="none" xmlns="http://www.w3.org/2000/svg">
<path d="M21.3724 13.7776C20.1258 14.1374 21.699 16.8531 19.717 17.5912C17.6651 18.3541 15.6071 19.1008 13.543 19.8312C13.4796 19.8533 13.4123 19.8614 13.3456 19.8549C13.2789 19.8483 13.2143 19.8273 13.1563 19.7931C13.0983 19.759 13.0482 19.7127 13.0093 19.6571C12.9704 19.6016 12.9438 19.5383 12.9311 19.4714C12.8763 19.1789 12.9843 18.9839 13.2553 18.8865C15.3453 18.1298 17.4368 17.3645 19.5298 16.5908C19.5957 16.567 19.6538 16.5251 19.6977 16.4698C19.7417 16.4145 19.7697 16.348 19.7787 16.2775C19.934 15.0472 19.4796 13.7149 20.7217 12.9814C20.7932 12.9396 20.8199 12.8777 20.8016 12.7957C20.4957 11.4309 21.1099 10.7554 22.3086 10.1867C23.4069 9.66679 25.5212 8.43889 26.672 8.38318C28.3251 8.30426 29.2795 10.2564 28.2726 11.5771C28.0884 11.8185 27.7672 12.0522 27.309 12.2781C25.2662 13.2824 23.8536 13.9161 23.0712 14.1791C22.6252 14.3277 22.1305 14.2062 21.5871 13.8147C21.5216 13.7667 21.4501 13.7544 21.3724 13.7776ZM27.5855 9.92137C27.4822 9.68983 27.2926 9.50951 27.0585 9.42005C26.8244 9.3306 26.5649 9.33934 26.3371 9.44437L22.2824 11.3142C22.0546 11.4192 21.8772 11.612 21.7892 11.8499C21.7012 12.0879 21.7098 12.3517 21.8131 12.5832L21.8358 12.634C21.9391 12.8655 22.1287 13.0458 22.3628 13.1353C22.5969 13.2248 22.8564 13.216 23.0841 13.111L27.1389 11.2411C27.3667 11.1361 27.5441 10.9434 27.632 10.7054C27.72 10.4674 27.7114 10.2036 27.6081 9.97211L27.5855 9.92137Z" fill="#747474"/>
<path d="M22.3634 21.1985C21.6282 20.4418 20.8694 19.7121 20.087 19.0096C19.5253 18.5059 20.0322 17.6865 20.5984 18.1345C21.0429 18.4873 21.8596 19.2587 23.0484 20.4487C23.7037 21.1056 23.6695 22.1571 22.5963 22.2615C17.2519 22.7815 11.9067 23.2968 6.56068 23.8074C5.14274 23.9444 4.5468 22.9881 5.62452 21.9157C8.43299 19.1226 11.2376 16.3263 14.0385 13.527C14.6892 12.8771 15.1779 13.1695 15.7852 13.715C16.5783 14.4268 17.3653 15.1441 18.1462 15.8667C18.4635 16.1615 18.6074 16.4702 18.1941 16.7697C18.1114 16.8296 18.011 16.859 17.9093 16.8531C17.8076 16.8472 17.7108 16.8063 17.6347 16.7372L14.8856 14.2419C14.8338 14.194 14.7829 14.1947 14.7326 14.2442L6.24101 22.7188C6.15729 22.8008 6.17328 22.8364 6.28896 22.8256L22.3269 21.3052C22.4121 21.2975 22.4243 21.2619 22.3634 21.1985Z" fill="#747474"/>
</svg>
