<svg width="32" height="32" viewBox="0 0 32 32" fill="none" xmlns="http://www.w3.org/2000/svg">
<g clip-path="url(#clip0_84_4923)">
<path d="M16.9881 17.4102C16.5402 17.4102 16.1106 17.5881 15.7939 17.9048C15.4772 18.2215 15.2993 18.6511 15.2993 19.099V24.1656C15.2993 24.6135 15.4772 25.0431 15.7939 25.3598C16.1106 25.6765 16.5402 25.8545 16.9881 25.8545C17.436 25.8545 17.8656 25.6765 18.1823 25.3598C18.499 25.0431 18.677 24.6135 18.677 24.1656V19.099C18.677 18.8772 18.6333 18.6576 18.5484 18.4527C18.4635 18.2478 18.3391 18.0616 18.1823 17.9048C18.0255 17.748 17.8393 17.6236 17.6344 17.5387C17.4295 17.4538 17.2099 17.4102 16.9881 17.4102Z" stroke="#747474" stroke-width="1.12911" stroke-linecap="round" stroke-linejoin="round"/>
<path d="M10.2328 8.96582H9.38838C9.16442 8.96582 8.94963 9.05479 8.79127 9.21315C8.63291 9.37151 8.54395 9.58629 8.54395 9.81025V13.188C8.54395 13.4119 8.63291 13.6267 8.79127 13.7851C8.94963 13.9434 9.16442 14.0324 9.38838 14.0324H16.1438C16.3678 14.0324 16.5826 14.1214 16.7409 14.2797C16.8993 14.4381 16.9883 14.6529 16.9883 14.8768V17.3578" stroke="#747474" stroke-width="1.12911" stroke-linecap="round" stroke-linejoin="round"/>
<path d="M10.2325 7.27705C10.2325 7.05309 10.3214 6.83831 10.4798 6.67995C10.6382 6.52158 10.853 6.43262 11.0769 6.43262H22.0545C22.2785 6.43262 22.4933 6.52158 22.6516 6.67995C22.81 6.83831 22.8989 7.05309 22.8989 7.27705V10.6548C22.8989 10.8787 22.81 11.0935 22.6516 11.2519C22.4933 11.4102 22.2785 11.4992 22.0545 11.4992H11.0769C10.853 11.4992 10.6382 11.4102 10.4798 11.2519C10.3214 11.0935 10.2325 10.8787 10.2325 10.6548V7.27705Z" stroke="#747474" stroke-width="1.12911" stroke-linecap="round" stroke-linejoin="round"/>
<path d="M22.8993 8.96582H23.7437" stroke="#747474" stroke-width="1.12911" stroke-linecap="round" stroke-linejoin="round"/>
</g>
<defs>
<clipPath id="clip0_84_4923">
<rect width="21.6213" height="21.6213" fill="white" transform="translate(5.33331 5.33301)"/>
</clipPath>
</defs>
</svg>
