<svg width="13" height="13" viewBox="0 0 13 13" fill="none" xmlns="http://www.w3.org/2000/svg">
<path d="M6.49993 9.35736L4.25202 10.7115C4.15271 10.7747 4.04889 10.8018 3.94056 10.7928C3.83223 10.7837 3.73743 10.7476 3.65618 10.6844C3.57493 10.6212 3.51174 10.5423 3.4666 10.4477C3.42146 10.3531 3.41243 10.247 3.43952 10.1292L4.03535 7.56986L2.04473 5.85007C1.95445 5.76882 1.89811 5.67619 1.87573 5.57219C1.85334 5.46819 1.86002 5.36672 1.89577 5.26777C1.93152 5.16883 1.98568 5.08758 2.05827 5.02402C2.13085 4.96047 2.23016 4.91984 2.35618 4.90215L4.98327 4.67194L5.99889 2.26152C6.04403 2.15319 6.11409 2.07194 6.20906 2.01777C6.30403 1.96361 6.40099 1.93652 6.49993 1.93652C6.59888 1.93652 6.69584 1.96361 6.79081 2.01777C6.88578 2.07194 6.95584 2.15319 7.00098 2.26152L8.0166 4.67194L10.6437 4.90215C10.7701 4.9202 10.8694 4.96083 10.9416 5.02402C11.0138 5.08722 11.068 5.16847 11.1041 5.26777C11.1402 5.36708 11.1471 5.46873 11.1247 5.57273C11.1023 5.67673 11.0458 5.76918 10.9551 5.85007L8.96452 7.56986L9.56035 10.1292C9.58743 10.2466 9.57841 10.3528 9.53327 10.4477C9.48813 10.5427 9.42493 10.6216 9.34368 10.6844C9.26243 10.7473 9.16764 10.7834 9.05931 10.7928C8.95098 10.8022 8.84716 10.7751 8.74785 10.7115L6.49993 9.35736Z" fill="#F6BF12"/>
</svg>
