<svg width="11" height="10" viewBox="0 0 11 10" fill="none" xmlns="http://www.w3.org/2000/svg">
<path d="M5.09091 8.16751L2.62302 9.65418C2.514 9.72356 2.40002 9.75329 2.28109 9.74338C2.16215 9.73347 2.05808 9.69383 1.96888 9.62445C1.87968 9.55507 1.8103 9.46845 1.76075 9.36458C1.71119 9.26071 1.70128 9.14415 1.73101 9.01491L2.38515 6.20509L0.199736 4.31701C0.100624 4.22781 0.038778 4.12612 0.0141983 4.01194C-0.0103815 3.89777 -0.00304725 3.78636 0.0362011 3.67774C0.0754494 3.56911 0.134916 3.47991 0.214602 3.41013C0.294288 3.34036 0.403311 3.29576 0.541672 3.27633L3.42583 3.0236L4.54084 0.377311C4.59039 0.258376 4.6673 0.169176 4.77157 0.109708C4.87584 0.0502413 4.98228 0.0205078 5.09091 0.0205078C5.19953 0.0205078 5.30598 0.0502413 5.41025 0.109708C5.51451 0.169176 5.59142 0.258376 5.64098 0.377311L6.75599 3.0236L9.64014 3.27633C9.7789 3.29616 9.88792 3.34076 9.96721 3.41013C10.0465 3.47951 10.106 3.56871 10.1456 3.67774C10.1853 3.78676 10.1928 3.89836 10.1682 4.01254C10.1436 4.12671 10.0816 4.2282 9.98208 4.31701L7.79666 6.20509L8.4508 9.01491C8.48053 9.14376 8.47062 9.26031 8.42107 9.36458C8.37151 9.46884 8.30213 9.55547 8.21293 9.62445C8.12373 9.69343 8.01966 9.73308 7.90073 9.74338C7.7818 9.75369 7.66782 9.72396 7.55879 9.65418L5.09091 8.16751Z" fill="white"/>
</svg>
