<svg width="25" height="25" viewBox="0 0 25 25" fill="none" xmlns="http://www.w3.org/2000/svg">
<path opacity="0.4" d="M18.9592 7.95445L5.95225 7.95445C4.85166 7.95445 3.95117 7.05396 3.95117 5.95337L3.95117 18.9604C3.95117 20.9614 4.95171 21.962 6.95279 21.962L18.9592 21.962C20.9603 21.962 21.9609 20.9614 21.9609 18.9604L21.9609 10.9561C21.9609 8.95498 20.9603 7.95445 18.9592 7.95445Z" fill="white"/>
<path d="M17.4584 12.4569C16.0776 12.4569 14.957 13.5775 14.957 14.9583C14.957 15.6486 15.2372 16.279 15.6874 16.7292C16.1376 17.1795 16.768 17.4596 17.4584 17.4596L21.9608 17.4596L21.9608 12.4569L17.4584 12.4569ZM17.9586 15.9588C17.4084 15.9588 16.9581 15.5086 16.9581 14.9583C16.9581 14.408 17.4084 13.9577 17.9586 13.9577C18.5089 13.9577 18.9592 14.408 18.9592 14.9583C18.9592 15.5086 18.5089 15.9588 17.9586 15.9588Z" fill="white"/>
<path d="M3.95117 5.95335C3.95117 6.50364 4.17132 7.00389 4.54152 7.36408C4.90171 7.73428 5.40195 7.95442 5.95225 7.95442L18.9592 7.95442L18.9592 6.95389C18.9592 4.95281 17.9587 3.95227 15.9576 3.95227L5.95225 3.95227C4.85166 3.95227 3.95117 4.85276 3.95117 5.95335Z" fill="white"/>
</svg>
