<svg width="24" height="24" viewBox="0 0 24 24" fill="none" xmlns="http://www.w3.org/2000/svg">
<path d="M19.0504 4.90982C18.1336 3.98374 17.0416 3.24948 15.8381 2.74987C14.6345 2.25025 13.3435 1.99528 12.0404 1.99982C6.58042 1.99982 2.13042 6.44981 2.13042 11.9098C2.13042 13.6598 2.59042 15.3598 3.45042 16.8598L2.05042 21.9998L7.30042 20.6198C8.75042 21.4098 10.3804 21.8298 12.0404 21.8298C17.5004 21.8298 21.9504 17.3798 21.9504 11.9198C21.9504 9.26981 20.9204 6.77982 19.0504 4.90982ZM12.0404 20.1498C10.5604 20.1498 9.11042 19.7498 7.84042 18.9998L7.54042 18.8198L4.42042 19.6398L5.25042 16.5998L5.05042 16.2898C4.22816 14.9768 3.79156 13.4591 3.79042 11.9098C3.79042 7.36981 7.49042 3.66982 12.0304 3.66982C14.2304 3.66982 16.3004 4.52982 17.8504 6.08982C18.6179 6.85378 19.2261 7.76248 19.6398 8.76324C20.0535 9.764 20.2644 10.8369 20.2604 11.9198C20.2804 16.4598 16.5804 20.1498 12.0404 20.1498ZM16.5604 13.9898C16.3104 13.8698 15.0904 13.2698 14.8704 13.1798C14.6404 13.0998 14.4804 13.0598 14.3104 13.2998C14.1404 13.5498 13.6704 14.1098 13.5304 14.2698C13.3904 14.4398 13.2404 14.4598 12.9904 14.3298C12.7404 14.2098 11.9404 13.9398 11.0004 13.0998C10.2604 12.4398 9.77042 11.6298 9.62042 11.3798C9.48042 11.1298 9.60042 10.9998 9.73042 10.8698C9.84042 10.7598 9.98042 10.5798 10.1004 10.4398C10.2204 10.2998 10.2704 10.1898 10.3504 10.0298C10.4304 9.85981 10.3904 9.71982 10.3304 9.59982C10.2704 9.47982 9.77042 8.25982 9.57042 7.75982C9.37042 7.27982 9.16042 7.33982 9.01042 7.32982H8.53042C8.36042 7.32982 8.10042 7.38982 7.87042 7.63982C7.65042 7.88982 7.01042 8.48982 7.01042 9.70982C7.01042 10.9298 7.90042 12.1098 8.02042 12.2698C8.14042 12.4398 9.77042 14.9398 12.2504 16.0098C12.8404 16.2698 13.3004 16.4198 13.6604 16.5298C14.2504 16.7198 14.7904 16.6898 15.2204 16.6298C15.7004 16.5598 16.6904 16.0298 16.8904 15.4498C17.1004 14.8698 17.1004 14.3798 17.0304 14.2698C16.9604 14.1598 16.8104 14.1098 16.5604 13.9898Z" fill="white"/>
</svg>
